<?xml version="1.0" encoding="UTF-8"?>
<svg width="67px" height="67px" viewBox="0 0 67 67" version="1.1" xmlns="http://www.w3.org/2000/svg" xmlns:xlink="http://www.w3.org/1999/xlink">
    <!-- Generator: Sketch 47.1 (45422) - http://www.bohemiancoding.com/sketch -->
    <title>icon/star/moon</title>
    <desc>Created with Sketch.</desc>
    <defs>
        <filter x="-0.0%" y="-0.1%" width="119.6%" height="100.2%" filterUnits="objectBoundingBox" id="filter-1">
            <feOffset dx="0" dy="1" in="SourceAlpha" result="shadowOffsetOuter1"></feOffset>
            <feColorMatrix values="0 0 0 0 0   0 0 0 0 0   0 0 0 0 0  0 0 0 0.2 0" type="matrix" in="shadowOffsetOuter1" result="shadowMatrixOuter1"></feColorMatrix>
            <feMerge>
                <feMergeNode in="shadowMatrixOuter1"></feMergeNode>
                <feMergeNode in="SourceGraphic"></feMergeNode>
            </feMerge>
        </filter>
        <circle id="path-2" cx="33.5" cy="33.5" r="33.5"></circle>
        <path d="M27.0450571,18.1001749 C18.6805618,18.1001749 11.8998251,11.3194382 11.8998251,2.95494293 C11.8998251,1.9434578 12.0009736,0.955772317 12.190289,0 C5.24079116,1.3744298 0,7.50175793 0,14.854768 C0,23.2192633 6.78073671,30 15.145232,30 C22.4982421,30 28.6255702,24.7592088 30,17.809711 C29.0442277,17.9990264 28.0565422,18.1001749 27.0450571,18.1001749 L27.0450571,18.1001749 Z" id="path-3"></path>
    </defs>
    <g id="Page-1" stroke="none" stroke-width="1" fill="none" fill-rule="evenodd">
        <g id="Core---Base-components" transform="translate(-540.000000, -1198.000000)">
            <g id="Feature_16" filter="url(#filter-1)" transform="translate(0.000000, 921.000000)">
                <polygon id="background" fill="#FFFFFF" points="0 0 793.328125 0 857.554688 0 1441 0 1441 800 0 800"></polygon>
                <g id="control/icon-holder/border-grey" transform="translate(540.000000, 277.000000)">
                    <g id="layer" opacity="0.5">
                        <use fill="#FFFFFF" fill-rule="evenodd" xlink:href="#path-2"></use>
                        <circle stroke="#D3DEE3" stroke-width="1" cx="33.5" cy="33.5" r="33"></circle>
                    </g>
                    <g id="icon/moon" transform="translate(18.500000, 18.500000)">
                        <mask id="mask-4" fill="white">
                            <use xlink:href="#path-3"></use>
                        </mask>
                        <use id="layer" fill="#FFFFFF" fill-rule="evenodd" xlink:href="#path-3"></use>
                        <g id="fill/blue" mask="url(#mask-4)" fill-rule="evenodd" fill="#00B1FF">
                            <rect id="layer" x="0" y="0" width="30" height="30"></rect>
                        </g>
                    </g>
                </g>
            </g>
        </g>
    </g>
</svg>