<?xml version="1.0" encoding="UTF-8"?>
<svg width="67px" height="67px" viewBox="0 0 67 67" version="1.1" xmlns="http://www.w3.org/2000/svg" xmlns:xlink="http://www.w3.org/1999/xlink">
    <!-- Generator: Sketch 47.1 (45422) - http://www.bohemiancoding.com/sketch -->
    <title>icon/star/sun</title>
    <desc>Created with Sketch.</desc>
    <defs>
        <filter x="-0.0%" y="-0.1%" width="119.6%" height="100.2%" filterUnits="objectBoundingBox" id="filter-1">
            <feOffset dx="0" dy="1" in="SourceAlpha" result="shadowOffsetOuter1"></feOffset>
            <feColorMatrix values="0 0 0 0 0   0 0 0 0 0   0 0 0 0 0  0 0 0 0.2 0" type="matrix" in="shadowOffsetOuter1" result="shadowMatrixOuter1"></feColorMatrix>
            <feMerge>
                <feMergeNode in="shadowMatrixOuter1"></feMergeNode>
                <feMergeNode in="SourceGraphic"></feMergeNode>
            </feMerge>
        </filter>
        <circle id="path-2" cx="33.5" cy="33.5" r="33.5"></circle>
        <path d="M15,7.4860496 C19.1426041,7.4860496 22.5139504,10.8567316 22.5139504,15.0006643 C22.5139504,19.144597 19.1426041,22.515279 15,22.515279 C10.8567316,22.515279 7.4860496,19.1439327 7.4860496,15.0006643 C7.4860496,10.8573959 10.8567316,7.4860496 15,7.4860496 Z M15,5.27723649 C14.1902126,5.27723649 13.5338795,4.62090345 13.5338795,3.81178034 L13.5338795,1.46612046 C13.5338795,0.656333038 14.1902126,0 15,0 C15.8097874,0 16.4661205,0.656333038 16.4661205,1.46612046 L16.4661205,3.81178034 C16.4661205,4.62090345 15.8091231,5.27723649 15,5.27723649 Z M15,24.7220992 C15.8091231,24.7220992 16.4661205,25.3784322 16.4661205,26.1882197 L16.4661205,28.5332152 C16.4661205,29.343667 15.8097874,30 15,30 C14.1902126,30 13.5338795,29.343667 13.5338795,28.5332152 L13.5338795,26.1882197 C13.5338795,25.3784322 14.1902126,24.7220992 15,24.7220992 Z M21.874225,8.12511072 C21.3022586,7.55248007 21.3022586,6.62444641 21.874225,6.05181577 L23.5329938,4.39304694 C24.1049601,3.8210806 25.0336581,3.8210806 25.6062888,4.39304694 C26.1789194,4.96567759 26.1789194,5.89437555 25.6062888,6.4663419 L23.9475199,8.12511072 C23.3755536,8.69774136 22.4475199,8.69774136 21.874225,8.12511072 Z M8.12511072,21.8755536 C8.69774136,22.4468556 8.69774136,23.3755536 8.12511072,23.9475199 L6.4663419,25.6069531 C5.89437555,26.1789194 4.96567759,26.1789194 4.39304694,25.6069531 C3.8204163,25.0349867 3.8210806,24.1056244 4.39304694,23.5336581 L6.05181577,21.8755536 C6.62444641,21.3022586 7.55248007,21.3022586 8.12511072,21.8755536 Z M24.7220992,15 C24.7220992,14.1902126 25.3784322,13.5338795 26.1882197,13.5338795 L28.5338795,13.5338795 C29.343667,13.5338795 30,14.1902126 30,15 C30,15.8097874 29.343667,16.4654562 28.5338795,16.4654562 L26.1882197,16.4654562 C25.3784322,16.4654562 24.7220992,15.8097874 24.7220992,15 Z M5.27723649,15 C5.27723649,15.8097874 4.62090345,16.4654562 3.81178034,16.4654562 L1.46612046,16.4654562 C0.656333038,16.4654562 0,15.8097874 0,15 C0,14.1902126 0.656333038,13.5338795 1.46612046,13.5338795 L3.81111603,13.5338795 C4.62090345,13.5338795 5.27723649,14.1902126 5.27723649,15 Z M21.874225,21.8755536 C22.4468556,21.3035872 23.3755536,21.3035872 23.9475199,21.8755536 L25.6062888,23.5343224 C26.1789194,24.1056244 26.1789194,25.0349867 25.6062888,25.6069531 C25.0336581,26.1789194 24.1056244,26.1789194 23.5329938,25.6069531 L21.874225,23.9481842 C21.3015943,23.3755536 21.3015943,22.4475199 21.874225,21.8755536 Z M8.12511072,8.12511072 C7.55248007,8.69840567 6.62444641,8.69840567 6.05181577,8.12511072 L4.39304694,6.4663419 C3.8204163,5.89437555 3.8204163,4.96567759 4.39304694,4.39371125 C4.96567759,3.8210806 5.89371125,3.8210806 6.4663419,4.39371125 L8.12511072,6.05181577 C8.69774136,6.62444641 8.69774136,7.55248007 8.12511072,8.12511072 Z" id="path-3"></path>
    </defs>
    <g id="Page-1" stroke="none" stroke-width="1" fill="none" fill-rule="evenodd">
        <g id="Core---Base-components" transform="translate(-930.000000, -1198.000000)">
            <g id="Feature_16" filter="url(#filter-1)" transform="translate(0.000000, 921.000000)">
                <polygon id="background" fill="#FFFFFF" points="0 0 793.328125 0 857.554688 0 1441 0 1441 800 0 800"></polygon>
                <g id="control/icon-holder/border-grey" transform="translate(930.000000, 277.000000)">
                    <g id="layer" opacity="0.5">
                        <use fill="#FFFFFF" fill-rule="evenodd" xlink:href="#path-2"></use>
                        <circle stroke="#D3DEE3" stroke-width="1" cx="33.5" cy="33.5" r="33"></circle>
                    </g>
                    <g id="icon/sun" transform="translate(18.500000, 18.500000)">
                        <mask id="mask-4" fill="white">
                            <use xlink:href="#path-3"></use>
                        </mask>
                        <use id="layer" fill="#FFFFFF" fill-rule="evenodd" xlink:href="#path-3"></use>
                        <g id="fill/blue" mask="url(#mask-4)" fill-rule="evenodd" fill="#00B1FF">
                            <rect id="layer" x="0" y="0" width="30" height="30"></rect>
                        </g>
                    </g>
                </g>
            </g>
        </g>
    </g>
</svg>