<?xml version="1.0" encoding="UTF-8"?>
<svg width="369px" height="432px" viewBox="0 0 369 432" version="1.1" xmlns="http://www.w3.org/2000/svg" xmlns:xlink="http://www.w3.org/1999/xlink">
    <!-- Generator: Sketch 47.1 (45422) - http://www.bohemiancoding.com/sketch -->
    <title>Device/iphone</title>
    <desc>Created with Sketch.</desc>
    <defs>
        <filter x="-0.0%" y="-0.1%" width="100.1%" height="100.2%" filterUnits="objectBoundingBox" id="filter-1">
            <feOffset dx="0" dy="1" in="SourceAlpha" result="shadowOffsetOuter1"></feOffset>
            <feColorMatrix values="0 0 0 0 0   0 0 0 0 0   0 0 0 0 0  0 0 0 0.2 0" type="matrix" in="shadowOffsetOuter1" result="shadowMatrixOuter1"></feColorMatrix>
            <feMerge>
                <feMergeNode in="shadowMatrixOuter1"></feMergeNode>
                <feMergeNode in="SourceGraphic"></feMergeNode>
            </feMerge>
        </filter>
        <rect id="path-2" x="0" y="0" width="1440" height="920"></rect>
        <path d="M324.413968,737 L46.4194776,737 C23.9115727,737 5.5379349,719.334978 5.5379349,696.356618 L5.5379349,40.6433824 C5.5379349,17.7943799 23.9115727,0 46.4194776,0 L324.413968,0 C347.489642,0 365.295511,17.7943799 365.295511,40.6433824 L365.295511,696.356618 C365.295511,719.334978 347.489642,737 324.413968,737 Z" id="path-4"></path>
        <filter x="-2.2%" y="-0.8%" width="104.3%" height="102.1%" filterUnits="objectBoundingBox" id="filter-5">
            <feMorphology radius="0.75" operator="dilate" in="SourceAlpha" result="shadowSpreadOuter1"></feMorphology>
            <feOffset dx="0" dy="2" in="shadowSpreadOuter1" result="shadowOffsetOuter1"></feOffset>
            <feGaussianBlur stdDeviation="2" in="shadowOffsetOuter1" result="shadowBlurOuter1"></feGaussianBlur>
            <feComposite in="shadowBlurOuter1" in2="SourceAlpha" operator="out" result="shadowBlurOuter1"></feComposite>
            <feColorMatrix values="0 0 0 0 0   0 0 0 0 0   0 0 0 0 0  0 0 0 0.04 0" type="matrix" in="shadowBlurOuter1"></feColorMatrix>
        </filter>
    </defs>
    <g id="Page-1" stroke="none" stroke-width="1" fill="none" fill-rule="evenodd">
        <g id="Core---Base-components" transform="translate(-537.000000, -489.000000)">
            <g id="Header_14" filter="url(#filter-1)" transform="translate(1.000000, 0.000000)">
                <g id="Device/iphone">
                    <mask id="mask-3" fill="white">
                        <use xlink:href="#path-2"></use>
                    </mask>
                    <use id="Mask" fill="#FFFFFF" xlink:href="#path-2"></use>
                    <g id="mockup/device/iphone" mask="url(#mask-3)">
                        <g transform="translate(535.000000, 491.000000)">
                            <path d="M1.03055556,143.899817 C1.03055556,142.30832 2.33430348,141.018156 3.84116162,141.018156 L6.65176768,141.018156 L6.65176768,164.518968 L3.84116162,164.518968 C2.28890675,164.518968 1.03055556,163.255462 1.03055556,161.637307 L1.03055556,143.899817 Z M1.03055556,196.835144 C1.03055556,195.211337 2.33430348,193.894982 3.84116162,193.894982 L6.65176768,193.894982 L6.65176768,240.896604 L3.84116162,240.896604 C2.28890675,240.896604 1.03055556,239.540626 1.03055556,237.956442 L1.03055556,196.835144 Z M1.03055556,255.587172 C1.03055556,253.963365 2.33430348,252.64701 3.84116162,252.64701 L6.65176768,252.64701 L6.65176768,299.648633 L3.84116162,299.648633 C2.28890675,299.648633 1.03055556,298.292655 1.03055556,296.708471 L1.03055556,255.587172 Z" id="layer" stroke="none" fill="#00B1FF" fill-rule="evenodd"></path>
                            <path d="M364.348232,162.974448 C364.348232,161.350641 365.65198,160.034286 367.158838,160.034286 L369.969444,160.034286 L369.969444,207.035908 L367.158838,207.035908 C365.606584,207.035908 364.348232,205.67993 364.348232,204.095746 L364.348232,162.974448 L364.348232,162.974448 L364.348232,162.974448 Z" id="layer" stroke="none" fill="#00B1FF" fill-rule="evenodd" transform="translate(367.158838, 183.535097) scale(-1, 1) translate(-367.158838, -183.535097) "></path>
                            <g id="layer" stroke="none" fill="none">
                                <use fill="black" fill-opacity="1" filter="url(#filter-5)" xlink:href="#path-4"></use>
                                <use stroke="#00B1FF" stroke-width="1.5" fill="#F5F8FA" fill-rule="evenodd" xlink:href="#path-4"></use>
                            </g>
                            <polygon id="layer" stroke="#77AAFF" stroke-width="1" fill-opacity="0.300000012" fill="#FFFFFF" fill-rule="evenodd" points="24.6292368 81.2867647 24.6292368 653.003676 348.832642 653.003676 348.832642 81.2867647"></polygon>
                            <g id="icon/picture/blue/72px" stroke="none" fill="none" transform="translate(149.500000, 339.500000)" stroke-width="2.5" stroke-linecap="round" stroke-linejoin="round">
                                <path d="M0,0 L72,0 L72,58 L0,58 L0,0 Z M21.0918367,19.71886 C23.7799982,19.71886 25.9591837,17.5396745 25.9591837,14.851513 C25.9591837,12.1633515 23.7799982,9.98416608 21.0918367,9.98416608 C18.4036752,9.98416608 16.2244898,12.1633515 16.2244898,14.851513 C16.2244898,17.5396745 18.4036752,19.71886 21.0918367,19.71886 Z M0.169969358,51.6212737 L17.8491152,32.3983218 L28.4691762,43.9457644 L53.1234291,14.851513 L71.9813512,35.356176 L71.9813512,56.9978057 C71.9813512,57.5513023 71.5402349,58 70.9909368,58 L0.971765557,58 C0.42477479,58 -0.00568434631,57.5615643 0.0108227544,57.003324 L0.169969358,51.6212737 Z" id="layer" stroke="#77AAFF"></path>
                            </g>
                            <path d="M210.087598,695.001838 C210.087598,709.217935 198.487304,720.742647 184.177974,720.742647 C169.868644,720.742647 158.26835,709.217935 158.26835,695.001838 C158.26835,680.784487 169.868644,669.261029 184.177974,669.261029 C198.487304,669.261029 210.087598,680.784487 210.087598,695.001838 L210.087598,695.001838 Z" id="layer" stroke="#77AAFF" stroke-width="1.5" fill="none"></path>
                            <rect id="layer" stroke="none" fill="#00B1FF" fill-rule="evenodd" x="156.189394" y="53.0173371" width="56.0113636" height="6.31714286" rx="3.15857143"></rect>
                            <path d="M184.195076,41.412381 C185.913644,41.412381 187.306818,39.9982404 187.306818,38.2538095 C187.306818,36.5093787 185.913644,35.0952381 184.195076,35.0952381 C182.476508,35.0952381 181.083333,36.5093787 181.083333,38.2538095 C181.083333,39.9982404 182.476508,41.412381 184.195076,41.412381 Z" id="layer" stroke="none" fill="#00B1FF" fill-rule="evenodd"></path>
                            <path d="M136.916667,59.3344799 C140.353802,59.3344799 143.140152,56.5061987 143.140152,53.0173371 C143.140152,49.5284754 140.353802,46.7001942 136.916667,46.7001942 C133.479531,46.7001942 130.693182,49.5284754 130.693182,53.0173371 C130.693182,56.5061987 133.479531,59.3344799 136.916667,59.3344799 Z" id="layer" stroke="none" fill="#00B1FF" fill-rule="evenodd"></path>
                        </g>
                    </g>
                </g>
            </g>
        </g>
    </g>
</svg>