<?xml version="1.0" encoding="UTF-8"?>
<svg width="69px" height="69px" viewBox="0 0 69 69" version="1.1" xmlns="http://www.w3.org/2000/svg" xmlns:xlink="http://www.w3.org/1999/xlink">
    <!-- Generator: Sketch 47.1 (45422) - http://www.bohemiancoding.com/sketch -->
    <title>icon/star/oval blue star</title>
    <desc>Created with Sketch.</desc>
    <defs>
        <filter x="-0.0%" y="-0.1%" width="173.2%" height="100.3%" filterUnits="objectBoundingBox" id="filter-1">
            <feOffset dx="0" dy="1" in="SourceAlpha" result="shadowOffsetOuter1"></feOffset>
            <feColorMatrix values="0 0 0 0 0   0 0 0 0 0   0 0 0 0 0  0 0 0 0.2 0" type="matrix" in="shadowOffsetOuter1" result="shadowMatrixOuter1"></feColorMatrix>
            <feMerge>
                <feMergeNode in="shadowMatrixOuter1"></feMergeNode>
                <feMergeNode in="SourceGraphic"></feMergeNode>
            </feMerge>
        </filter>
        <path d="M28.8725644,7.63968375 C29.4952299,7.09484582 30,7.32455336 30,8.15820286 L30,24.3282979 C30,25.159506 29.3313451,25.8333333 28.4917359,25.8333333 L1.50826408,25.8333333 C0.675272828,25.8333333 0,25.1619474 0,24.3282979 L0,8.15820286 C0,7.32699474 0.499077872,7.08986325 1.12744027,7.63968375 L14.2458973,19.1184046 C14.6623938,19.4828413 15.3415094,19.4794789 15.7541614,19.1184046 L28.8725644,7.63968375 Z M28.8725644,4.33197252 C29.4952299,3.78043933 29.3313451,3.33333333 28.4917359,3.33333333 L1.50826408,3.33333333 C0.675272828,3.33333333 0.499077872,3.77539553 1.12744027,4.33197252 L14.256177,15.9608555 C14.6669962,16.3247418 15.3415094,16.3172615 15.7438817,15.9608555 L28.8725644,4.33197252 Z" id="path-2"></path>
    </defs>
    <g id="Page-1" stroke="none" stroke-width="1" fill="none" fill-rule="evenodd">
        <g id="Core---Base-components" transform="translate(-326.000000, -1833.000000)">
            <g id="Feature_12" filter="url(#filter-1)" transform="translate(1.000000, 1722.000000)">
                <rect id="background" fill="#FFFFFF" x="0" y="0" width="1440" height="660"></rect>
                <path d="M0,1.997104 C0,0.894133919 0.896012038,0 2.00205462,0 L717.997945,0 C719.10365,0 720,0.900835097 720,1.997104 L720,660 L0,660 L0,1.997104 Z" id="background" fill="#F5F8FA"></path>
                <g id="left" transform="translate(99.000000, 111.000000)">
                    <g id="control/icon-holder/border-blue" transform="translate(227.000000, 1.000000)">
                        <circle id="layer" stroke="#00B1FF" stroke-width="1" opacity="0.5" cx="33.5" cy="33.5" r="33.5"></circle>
                        <g id="icon/mail" transform="translate(18.500000, 18.500000)">
                            <mask id="mask-3" fill="white">
                                <use xlink:href="#path-2"></use>
                            </mask>
                            <use id="layer" fill="#FFFFFF" fill-rule="evenodd" xlink:href="#path-2"></use>
                            <g id="fill/blue" mask="url(#mask-3)" fill-rule="evenodd" fill="#00B1FF">
                                <rect id="layer" x="0" y="0" width="30" height="30"></rect>
                            </g>
                        </g>
                    </g>
                </g>
            </g>
        </g>
    </g>
</svg>